<svg xmlns="http://www.w3.org/2000/svg" xmlns:xlink="http://www.w3.org/1999/xlink" width="1640" zoomAndPan="magnify" viewBox="0 0 1230 693.000001" height="924" preserveAspectRatio="xMidYMid meet" version="1.0"><defs><g/><clipPath id="b23974f680"><path d="M 0.886719 0 L 1229.113281 0 L 1229.113281 692 L 0.886719 692 Z M 0.886719 0 " clip-rule="nonzero"/></clipPath><clipPath id="b348c818aa"><path d="M 450.527344 242.175781 L 779.300781 242.175781 L 779.300781 449.628906 L 450.527344 449.628906 Z M 450.527344 242.175781 " clip-rule="nonzero"/></clipPath></defs><g clip-path="url(#b23974f680)"><path fill="#ffffff" d="M 0.886719 0 L 1229.113281 0 L 1229.113281 692 L 0.886719 692 Z M 0.886719 0 " fill-opacity="1" fill-rule="nonzero"/><path fill="#000000" d="M 0.886719 0 L 1229.113281 0 L 1229.113281 692 L 0.886719 692 Z M 0.886719 0 " fill-opacity="1" fill-rule="nonzero"/></g><g clip-path="url(#b348c818aa)"><path fill="#dfb15b" d="M 492.1875 262.078125 L 451.820312 293 L 490.539062 293 Z M 597.527344 242.195312 L 533.628906 242.195312 L 564.816406 257.503906 Z M 517.324219 242.820312 L 500.054688 256.046875 L 498.230469 290.53125 L 556.027344 261.828125 Z M 610.523438 300.800781 L 555.46875 300.800781 L 595.285156 391.351562 Z M 688.652344 381.902344 L 779.484375 300.800781 L 737.984375 300.800781 Z M 636.332031 406.632812 L 623.988281 439.632812 L 669.132812 399.324219 L 714.351562 325.003906 Z M 584.714844 386.152344 L 547.175781 300.800781 L 503.144531 300.800781 Z M 515.667969 325.003906 L 560.878906 399.308594 L 606.027344 439.625 L 593.667969 406.621094 Z M 450.535156 300.800781 L 541.363281 381.890625 L 492.023438 300.800781 Z M 615.015625 319.648438 L 600.800781 404.070312 L 615.015625 449.796875 L 629.214844 404.058594 Z M 634.730469 391.355469 L 674.558594 300.800781 L 619.496094 300.800781 Z M 731.78125 290.53125 L 729.964844 256.046875 L 712.691406 242.820312 L 673.980469 261.828125 Z M 778.207031 293 L 737.824219 262.074219 L 739.46875 293 Z M 627.335938 293 L 674.597656 293 L 663.621094 267.640625 Z M 566.402344 267.640625 L 555.417969 293 L 602.695312 293 Z M 547.160156 293 L 557.132812 269.9375 L 510.679688 293 Z M 615.015625 292.191406 L 657.523438 262.484375 L 615.015625 242.574219 L 572.492188 262.484375 Z M 719.328125 293 L 672.882812 269.9375 L 682.859375 293 Z M 682.839844 300.800781 L 645.304688 386.144531 L 726.871094 300.800781 Z M 665.199219 257.503906 L 632.492188 242.195312 L 696.386719 242.195312 L 665.199219 257.503906 " fill-opacity="1" fill-rule="nonzero"/></g><g fill="#dfb15b" fill-opacity="1"><g transform="translate(469.841895, 520.857059)"><g><path d="M 3.171875 0 L 19.460938 0 C 33.136719 0 41.964844 -9.449219 41.902344 -22.566406 C 41.839844 -32.640625 35.125 -43.519531 18.027344 -43.519531 L 3.171875 -43.519531 L 3.171875 -42.710938 C 5.035156 -42.152344 5.65625 -40.722656 5.65625 -35.625 L 5.65625 -7.894531 C 5.65625 -2.796875 5.035156 -1.367188 3.171875 -0.808594 Z M 10.753906 -5.472656 L 10.753906 -42.585938 L 14.984375 -42.585938 C 28.847656 -42.585938 36.246094 -32.515625 36.246094 -20.082031 C 36.246094 -7.085938 30.214844 -0.933594 19.335938 -0.933594 L 14.796875 -0.933594 C 11.378906 -0.933594 10.753906 -2.550781 10.753906 -5.472656 Z M 10.753906 -5.472656 "/></g></g></g><g fill="#dfb15b" fill-opacity="1"><g transform="translate(514.900801, 520.857059)"><g><path d="M 3.171875 0 L 13.242188 0 L 13.242188 -0.808594 C 11.316406 -1.367188 10.753906 -2.796875 10.753906 -7.894531 L 10.753906 -35.625 C 10.753906 -40.722656 11.316406 -42.152344 13.242188 -42.710938 L 13.242188 -43.519531 L 3.171875 -43.519531 L 3.171875 -42.710938 C 5.035156 -42.152344 5.65625 -40.722656 5.65625 -35.625 L 5.65625 -7.894531 C 5.65625 -2.796875 5.035156 -1.367188 3.171875 -0.808594 Z M 3.171875 0 "/></g></g></g><g fill="#dfb15b" fill-opacity="1"><g transform="translate(531.308466, 520.857059)"><g><path d="M -1.058594 0 L 5.96875 0 L 5.96875 -0.808594 C 3.855469 -1.242188 3.605469 -3.296875 5.222656 -7.335938 L 8.890625 -16.414062 L 26.421875 -16.414062 L 30.214844 -7.273438 C 32.203125 -2.609375 32.699219 -1.367188 30.773438 -0.808594 L 30.773438 0 L 40.410156 0 L 40.410156 -0.808594 C 39.105469 -1.367188 37.613281 -2.609375 35.683594 -7.273438 L 20.390625 -44.015625 L 15.730469 -41.902344 L 16.289062 -40.597656 C 16.785156 -39.601562 16.847656 -38.792969 16.414062 -37.675781 L 4.164062 -7.335938 C 2.238281 -2.609375 0.683594 -1.367188 -1.058594 -0.808594 Z M 9.261719 -17.34375 L 17.53125 -37.800781 L 26.050781 -17.34375 Z M 9.261719 -17.34375 "/></g></g></g><g fill="#dfb15b" fill-opacity="1"><g transform="translate(571.146761, 520.857059)"><g><path d="M 3.109375 0 L 10.941406 0 L 10.941406 -0.808594 C 8.207031 -1.554688 6.714844 -3.296875 6.714844 -10.382812 L 6.714844 -37.984375 L 22.628906 -11.8125 L 23.8125 -11.8125 L 39.601562 -38.484375 L 39.601562 -7.894531 C 39.601562 -2.796875 38.980469 -1.367188 37.113281 -0.808594 L 37.113281 0 L 47.1875 0 L 47.1875 -0.808594 C 45.257812 -1.367188 44.699219 -2.796875 44.699219 -7.894531 L 44.699219 -33.136719 C 44.699219 -40.222656 46.003906 -41.964844 48.492188 -42.710938 L 48.492188 -43.519531 L 41.46875 -43.519531 L 25.550781 -16.722656 L 9.324219 -43.519531 L 1.804688 -43.519531 L 1.804688 -42.710938 C 4.289062 -41.964844 5.59375 -40.222656 5.59375 -33.136719 L 5.59375 -7.894531 C 5.59375 -2.796875 5.035156 -1.367188 3.109375 -0.808594 Z M 3.109375 0 "/></g></g></g><g fill="#dfb15b" fill-opacity="1"><g transform="translate(622.793597, 520.857059)"><g><path d="M 25.363281 0.621094 C 35.808594 0.621094 47.375 -6.21875 47.375 -21.574219 C 47.375 -36.804688 35.871094 -44.015625 25.363281 -44.015625 C 12.183594 -44.015625 3.234375 -34.566406 3.234375 -21.820312 C 3.234375 -6.402344 14.796875 0.621094 25.363281 0.621094 Z M 8.207031 -25.425781 C 7.832031 -35.5625 13.367188 -42.585938 22.816406 -42.585938 C 33.945312 -42.585938 42.089844 -30.464844 42.523438 -17.46875 C 42.835938 -8.144531 37.921875 -0.933594 27.976562 -0.933594 C 16.847656 -0.933594 8.640625 -12.929688 8.207031 -25.425781 Z M 8.207031 -25.425781 "/></g></g></g><g fill="#dfb15b" fill-opacity="1"><g transform="translate(673.321739, 520.857059)"><g><path d="M 35.996094 0.496094 L 36.804688 0.496094 L 36.804688 -35.625 C 36.804688 -40.722656 37.363281 -42.152344 39.292969 -42.710938 L 39.292969 -43.519531 L 31.457031 -43.519531 L 31.457031 -42.710938 C 34.253906 -41.964844 35.746094 -40.222656 35.746094 -33.136719 L 35.746094 -8.332031 L 8.578125 -43.519531 L 2.488281 -43.519531 L 2.488281 -42.710938 C 4.972656 -42.152344 5.71875 -40.722656 5.71875 -35.625 L 5.71875 -7.894531 C 5.71875 -2.796875 5.097656 -1.367188 3.234375 -0.808594 L 3.234375 0 L 11.003906 0 L 11.003906 -0.808594 C 8.207031 -1.554688 6.714844 -3.296875 6.714844 -10.382812 L 6.714844 -37.613281 Z M 35.996094 0.496094 "/></g></g></g><g fill="#dfb15b" fill-opacity="1"><g transform="translate(715.08669, 520.857059)"><g><path d="M 3.171875 0 L 19.460938 0 C 33.136719 0 41.964844 -9.449219 41.902344 -22.566406 C 41.839844 -32.640625 35.125 -43.519531 18.027344 -43.519531 L 3.171875 -43.519531 L 3.171875 -42.710938 C 5.035156 -42.152344 5.65625 -40.722656 5.65625 -35.625 L 5.65625 -7.894531 C 5.65625 -2.796875 5.035156 -1.367188 3.171875 -0.808594 Z M 10.753906 -5.472656 L 10.753906 -42.585938 L 14.984375 -42.585938 C 28.847656 -42.585938 36.246094 -32.515625 36.246094 -20.082031 C 36.246094 -7.085938 30.214844 -0.933594 19.335938 -0.933594 L 14.796875 -0.933594 C 11.378906 -0.933594 10.753906 -2.550781 10.753906 -5.472656 Z M 10.753906 -5.472656 "/></g></g></g></svg>